<svg width="127" height="94" viewBox="0 0 127 94" fill="none" xmlns="http://www.w3.org/2000/svg">
<path d="M74.8619 74.5121L64.892 79.0597L69.6146 75.7364H57.5457L61.5686 79.0597L51.9485 74.5121H74.8619Z" fill="#6247AD"/>
<path d="M63.3178 89.9043L55.7966 86.4061L61.5687 86.2312V79.0598L57.3708 75.7365H69.6146L64.892 79.0598V86.2312L70.8389 86.4061L63.3178 89.9043Z" fill="#AC91FF"/>
<path d="M125.761 9.27024C126.053 21.4557 126.286 46.5571 126.286 46.5571L118.939 11.0502L92.5279 0.174866L125.761 9.27024Z" fill="#6247AD"/>
<path d="M94.4519 80.9837L76.611 50.3743L90.2541 79.4095L72.763 93.0526L94.4519 80.9837Z" fill="#6247AD"/>
<path d="M70.4891 45.6517L81.8583 74.8618L72.5881 46.5263L101.798 23.6129L70.4891 45.6517Z" fill="#6247AD"/>
<path d="M95.3265 8.22081L75.0368 35.5069L92.1781 0L119.114 11.0194L126.286 46.3514L95.3265 8.22081Z" fill="#AC91FF"/>
<path d="M101.623 23.7879L72.4132 46.1765L81.8584 74.8619L72.9379 93.0526L90.429 79.5845L77.1358 50.0245L101.623 23.7879Z" fill="#AC91FF"/>
<path d="M0.524734 9.27024C0.233219 21.4557 3.8147e-06 46.5571 3.8147e-06 46.5571L7.34626 11.0502L33.7578 0.174866L0.524734 9.27024Z" fill="#6247AD"/>
<path d="M31.8338 80.9837L49.6747 50.3743L36.0317 79.4095L53.5228 93.0526L31.8338 80.9837Z" fill="#6247AD"/>
<path d="M55.7966 45.6517L44.4274 74.8618L53.6977 46.5263L24.4875 23.6129L55.7966 45.6517Z" fill="#6247AD"/>
<path d="M30.9592 8.22081L51.2489 35.5069L34.1076 0L7.17134 11.0194L-1.14441e-05 46.3514L30.9592 8.22081Z" fill="#AC91FF"/>
<path d="M24.6624 23.7879L53.8726 46.1765L44.4274 74.8619L53.3478 93.0526L35.8567 79.5845L49.15 50.0245L24.6624 23.7879Z" fill="#AC91FF"/>
</svg>
